{"title":"Almost Human S01E07 HDTV 480p x264 AAC E-Subs [GWC].mp4","uid":9445219,"size":153780554,"categoryP":"video","categoryS":"tv_shows","magnet":"?xt=urn:btih:c8818a22ba47e5f8a7d8d9d6738a0ff9b508dca6&amp;dn=Almost+Human+S01E07+HDTV+480p+x264+AAC+E-Subs+%5BGWC%5D.mp4&amp;tr=udp%3A%2F%2Ftracker.openbittorrent.com%3A80&amp;tr=udp%3A%2F%2Fopen.demonii.com%3A1337&amp;tr=udp%3A%2F%2Ftracker.coppersurfer.tk%3A6969&amp;tr=udp%3A%2F%2Fexodus.desync.com%3A6969","seeders":1,"leechers":0,"uploader":"canc232","files":1,"time":1389079668,"description":"Almost Human S01E07 HDTV 480p x264 AAC E-Subs [GWC] \n\n\nSCREENS : &lt;a href=&quot;\nhttp://s20.postimg.org/hyenexbp9/Almost_Human_S01_E07_HDTV_480p_x264_AAC_E_Subs_G.jpg&quot; rel=&quot;nofollow&quot; target=&quot;_NEW&quot;&gt;\nhttp://s20.postimg.org/hyenexbp9/Almost_Human_S01_E07_HDTV_480p_x264_AAC_E_Subs_G.jpg&lt;/a&gt; &lt;a href=&quot;\nhttp://s20.postimg.org/x5umza3jx/Almost_Human_S01_E07_HDTV_480p_x264_AAC_E_Subs_G.jpg&quot; rel=&quot;nofollow&quot; target=&quot;_NEW&quot;&gt;\nhttp://s20.postimg.org/x5umza3jx/Almost_Human_S01_E07_HDTV_480p_x264_AAC_E_Subs_G.jpg&lt;/a&gt; &lt;a href=&quot;\nhttp://s20.postimg.org/4ext97xq5/Almost_Human_S01_E07_HDTV_480p_x264_AAC_E_Subs_G.jpg&quot; rel=&quot;nofollow&quot; target=&quot;_NEW&quot;&gt;\nhttp://s20.postimg.org/4ext97xq5/Almost_Human_S01_E07_HDTV_480p_x264_AAC_E_Subs_G.jpg&lt;/a&gt;\n\n\nMEDIA INFO :\nGeneral \nFormat : MPEG-4 \nFormat profile : Base Media\nFile size : 147 MiB \nDuration : 43mn 23s \nOverall bit rate mode : Variable \nOverall bit rate : 473 Kbps\n\nVideo \nFormat : AVC \nFormat profile : &lt;a class=&quot;__cf_email__&quot; href=&quot;/cdn-cgi/l/email-protection&quot; data-cfemail=&quot;a2eacbc5cae2ee918c92&quot;&gt;[email&amp;#160;protected]&lt;/a&gt;&lt;script cf-hash='f9e31' type=&quot;text/javascript&quot;&gt;\n/* &lt;![CDATA[ */!function(){try{var t=&quot;currentScript&quot;in document?document.currentScript:function(){for(var t=document.getElementsByTagName(&quot;script&quot;),e=t.length;e--;)if(t[e].getAttribute(&quot;cf-hash&quot;))return t[e]}();if(t&amp;&amp;t.previousSibling){var e,r,n,i,c=t.previousSibling,a=c.getAttribute(&quot;data-cfemail&quot;);if(a){for(e=&quot;&quot;,r=parseInt(a.substr(0,2),16),n=2;a.length-n;n+=2)i=parseInt(a.substr(n,2),16)^r,e+=String.fromCharCode(i);e=document.createTextNode(e),c.parentNode.replaceChild(e,c)}}}catch(u){}}();/* ]]&gt; */&lt;/script&gt; \nFormat settings, CABAC : Yes \nFormat settings, ReFrames : 4 frames \nDuration : 42mn 29s \nBit rate : 419 Kbps \nMaximum bit rate : 2 903 Kbps \nWidth : 720 pixels \nHeight : 404 pixels \nDisplay aspect ratio : 16:9 \nFrame rate : 23.976 fps \nStream size : 127 MiB (87%) \nTitle : Almost Human S01E07 HDTV 480p x264 AAC E-Subs [GWC] \nWriting library : x264 core\n\nAudio \nFormat : AAC \nFormat profile : HE-AAC / LC \nDuration : 42mn 29s \nBit rate mode : Variable \nChannel(s) : 2 channels \nSampling rate : 48.0 KHz / 24.0 KHz \nStream size : 18.2 MiB\nLanguage : English \n\nText \nFormat : Timed Text \nDuration : 43mn 23s \nBit rate mode : Variable \nStream size : 28.7 KiB (0%) \nTitle : English Subtitle by wilson0804 \nLanguage : English\n","torrent":{"xt":"urn:btih:c8818a22ba47e5f8a7d8d9d6738a0ff9b508dca6","amp;dn":"Almost+Human+S01E07+HDTV+480p+x264+AAC+E-Subs+%5BGWC%5D.mp4","amp;tr":["udp%3A%2F%2Ftracker.openbittorrent.com%3A80","udp%3A%2F%2Fopen.demonii.com%3A1337","udp%3A%2F%2Ftracker.coppersurfer.tk%3A6969","udp%3A%2F%2Fexodus.desync.com%3A6969"],"infoHash":"c8818a22ba47e5f8a7d8d9d6738a0ff9b508dca6","infoHashBuffer":{"type":"Buffer","data":[200,129,138,34,186,71,229,248,167,216,217,214,115,138,15,249,181,8,220,166]},"announce":[],"urlList":[]}}